<svg width="43" height="42" viewBox="0 0 43 42" fill="none" xmlns="http://www.w3.org/2000/svg">
<path d="M19.7988 34.746L18.7582 31.8851L16.271 23.9989L16.0404 22.9752C13.814 24.1216 12.5762 25.1987 11.71 27.5565C11.4096 28.374 11.2728 29.1232 11.3917 29.9979C11.4264 30.2529 11.3574 30.3445 11.5947 30.3706C12.818 30.5054 13.8394 31.4059 14.1958 32.5791C14.3571 33.11 14.5424 34.1943 14.4816 34.7586C14.3976 35.5392 13.7987 36.3751 12.986 36.4735C12.6589 36.5132 12.2327 36.5075 11.9679 36.2867C11.6566 36.0272 11.6228 35.5588 11.9072 35.2631C12.2291 34.9286 12.6406 35.0416 13.0534 35.0235C13.3889 34.7463 13.1133 33.4753 12.999 33.1098C12.4494 31.3534 10.426 31.1069 9.56869 32.8252C9.38494 33.1936 8.93459 34.6636 9.05493 35.022C9.24385 35.0879 9.56607 35.0456 9.77172 35.0459C11.0169 35.0483 10.4671 37.1589 8.65441 36.3194C7.54146 35.804 7.64947 34.6285 7.9024 33.6608C8.25055 32.329 8.78013 31.0453 10.1907 30.5366L10.0983 30.0599C9.8782 28.3641 10.5354 26.3294 11.579 24.9799C11.1892 25.1424 10.7796 25.2528 10.3758 25.3744C7.40746 26.2684 6.2358 27.6611 5.14734 30.3804L4.69775 31.5256L4.08167 33.5693C3.78838 34.6649 3.53715 35.7871 3.38231 36.9115L3.12318 39.706C3.11929 39.8208 3.12425 39.9462 3.09773 40.0576L3.07725 40.1446C2.94093 40.6391 2.15966 40.6892 1.91427 40.185C1.80835 39.9674 1.84265 39.6817 1.84877 39.4468L2.1201 36.5551C2.35552 34.9208 2.75004 33.2723 3.27543 31.7074C4.60215 27.7555 5.72154 25.5292 9.7257 24.1828L12.0286 23.4665C12.43 23.3451 12.8418 23.2398 13.2315 23.0843C14.1976 22.6986 15.0434 22.0034 15.9771 21.5386C15.9222 20.8654 16.1026 19.6687 15.8068 19.1465L15.1496 17.856L14.7952 16.9599C14.5293 16.2124 14.6051 16.5406 14.2132 16.0442C13.1443 14.6896 11.6625 9.83902 14.492 10.2196L13.7205 5.45306C13.5998 4.09016 14.1058 3.93028 15.1777 3.26923C17.02 2.13306 18.8806 1.41678 21.0705 1.25852C23.5987 1.10427 25.9201 2.05994 28.0071 3.3935C29.5922 4.40627 29.3915 4.54666 29.1509 6.21381L28.6207 9.58677C28.4513 10.6106 28.4675 9.97782 29.1967 10.2296L29.2258 10.2402C30.0256 10.5233 30.1376 11.3513 30.1367 12.083C30.1352 13.2528 29.7946 14.2698 29.2837 15.3098C29.0555 15.7743 28.93 16.1554 28.4233 16.3566C28.1183 16.4778 28.1279 17.1389 28.001 17.5136C27.8027 18.0988 27.4808 18.7484 27.1406 19.2664C27.0015 19.4783 27.0569 19.6883 27.0573 19.9319L27.0581 21.1703C27.0578 21.2746 26.9869 21.4776 27.0911 21.5262C28.1219 22.0065 28.9569 22.7535 30.0986 23.1958C30.6285 23.4012 31.1866 23.5378 31.7317 23.6972L33.613 24.2745C37.3161 25.6074 38.5821 28.1454 39.7189 31.6993C40.4255 33.9083 40.9566 36.2236 41.1164 38.542L41.1691 39.5588C41.1757 39.7282 41.1986 39.9196 41.1702 40.087C41.0725 40.6619 40.2623 40.6577 39.9926 40.2202L39.9778 40.1953C39.8858 40.0452 39.8913 39.8136 39.8848 39.6411L39.8532 38.9144C39.6475 36.4933 39.1629 34.1327 38.3885 31.8277L37.827 30.2688C36.8672 27.9076 35.7886 26.5109 33.3966 25.6034C32.7508 25.3584 32.0677 25.2043 31.4326 24.9356C31.7243 25.3825 32.0284 25.7844 32.2268 26.288C32.7874 27.7104 32.4298 30.186 32.2681 31.6774C35.0844 32.7012 34.6872 36.9044 31.6575 37.3246C30.8547 37.4359 30.0582 37.1816 29.4225 36.6937C27.3913 35.1348 28.4336 31.8272 30.9502 31.4973L31.0876 30.3632C31.1621 29.7222 31.2041 29.0702 31.205 28.4253C31.2094 25.1835 29.2482 24.4751 26.9652 22.9205L26.599 24.5177L23.6249 33.7154L22.5606 36.3427C22.2364 37.1002 22.1557 36.9479 22.1538 37.7959L22.1524 39.3325C22.1515 39.5722 22.1835 39.8764 22.125 40.1068C21.9908 40.6346 21.2251 40.8029 20.9633 40.2766C20.7911 39.9301 20.8506 39.4087 20.8496 39.0288L20.8463 37.7637C20.8448 37.5268 20.8782 37.2206 20.7641 37.0065L19.7988 34.746ZM21.4282 2.53118C19.1601 2.61815 16.7524 3.59365 14.9892 5.00698L15.3845 7.90727C16.0625 7.91407 16.7167 7.92454 17.38 8.09028C18.8345 8.45368 20.1082 9.27916 21.6477 9.26751C23.6966 9.22206 25.2242 7.78328 27.6049 7.90698L28.0148 4.97053C26.4297 3.62331 23.4472 2.44657 21.4282 2.53118ZM15.7214 9.20754C15.8411 9.97363 16.4072 13.2333 15.4527 13.358C14.3839 13.4977 14.8555 11.8581 14.5376 11.507C14.1011 11.3129 14.1881 11.9212 14.194 12.1797C14.2134 13.0271 14.4302 13.9666 14.8828 14.6978L14.9401 14.7821C15.4826 14.8389 15.614 14.9615 15.7192 15.4833C15.982 16.7858 16.6255 18.0907 17.4194 19.1438C18.1184 20.071 19.8752 21.6473 21.034 21.8231C22.8499 22.0987 24.7215 20.2987 25.7254 18.9574C26.3089 18.1548 26.7937 17.2377 27.0843 16.2877C27.2029 15.8999 27.2635 14.8924 27.7744 14.8002L28.1208 14.7762C28.4699 14.1493 28.6789 13.4806 28.8085 12.778C28.8449 12.5802 28.9021 11.7339 28.7922 11.6015C28.7208 11.5155 28.5656 11.5003 28.4624 11.4971C28.2396 11.7046 28.4684 12.8366 27.9586 13.3069C27.7078 13.5384 27.421 13.4004 27.2286 13.1634C26.9684 12.8428 27.0442 12.412 27.0521 12.0321L27.0606 11.1117C27.0774 10.7821 27.1258 10.4481 27.1673 10.1206L27.2815 9.23051C25.5497 9.28523 24.7277 9.88832 23.1676 10.3376C21.7927 10.7335 20.6515 10.6004 19.338 10.1529L17.608 9.52607C16.9867 9.33182 16.3732 9.21411 15.7214 9.20754ZM17.2061 20.8173L17.2659 22.1799C17.2725 22.4551 17.2772 22.4275 17.4791 22.6055L18.4344 23.4781C20.9132 25.5557 22.7715 25.2901 25.1074 23.0043C25.3057 22.8103 25.517 22.6159 25.6891 22.3982C25.7564 22.3139 25.7331 22.2759 25.7348 22.1677L25.7919 20.8356C23.0865 23.705 20.5989 24.0789 17.6592 21.2735L17.2061 20.8173ZM17.712 24.5302L21.5247 35.5235L22.9656 31.5871L25.2669 24.593C22.6026 26.7241 20.302 26.8425 17.712 24.5302ZM31.1532 32.8816C29.0589 33.1459 29.2607 36.0622 31.4189 36.0104C33.5471 35.7006 33.108 32.7189 31.1532 32.8816Z" fill="black"/>
<path d="M21.6772 8.08344C21.5261 8.10743 21.3932 8.09409 21.2524 8.03181C20.5792 7.73418 20.9642 6.93237 20.8411 6.63873L20.0555 6.63464C19.8905 6.63364 19.6978 6.65352 19.5418 6.59473L19.5108 6.58176C19.0841 6.40565 19.0439 5.78524 19.3484 5.48174C19.5871 5.24387 19.8752 5.28688 20.1831 5.28633L20.8356 5.28622C20.8514 4.74136 20.6896 4.05282 21.3445 3.83753L21.4488 3.82811C22.2967 3.79404 22.2038 4.67297 22.2091 5.27986C22.3058 5.29758 22.4191 5.28561 22.518 5.28479L23.1005 5.28066C23.9057 5.27768 24.0983 6.05416 23.7018 6.47306C23.4703 6.7177 23.0499 6.64675 22.7455 6.64216L22.2061 6.64656C22.208 7.18211 22.32 7.88414 21.6772 8.08344Z" fill="black"/>
</svg>
