<svg width="30" height="30" viewBox="0 0 30 30" fill="none" xmlns="http://www.w3.org/2000/svg">
<path d="M12.6447 20.3833C12.6447 21.5796 12.226 22.5815 11.3886 23.3889C10.5512 24.1964 9.50451 24.6001 8.24844 24.6001C7.05218 24.6001 6.03535 24.1366 5.19797 23.2095C4.36059 22.2824 3.94189 21.116 3.94189 19.7104C3.94189 18.6936 4.16619 17.5721 4.61479 16.3459C5.0933 15.1198 5.70638 13.8787 6.45404 12.6226C7.23161 11.3665 8.0989 10.1254 9.05591 8.89921C10.0428 7.64314 11.0297 6.47678 12.0167 5.40015L13.2279 6.38706C11.8821 7.97211 10.7606 9.57211 9.86339 11.1871C8.96619 12.802 8.42788 14.3871 8.24844 15.9422C9.4447 16.0319 10.4765 16.4805 11.3438 17.288C12.2111 18.0955 12.6447 19.1272 12.6447 20.3833ZM25.5195 20.3833C25.5195 21.5796 25.1008 22.5815 24.2634 23.3889C23.426 24.1964 22.3793 24.6001 21.1232 24.6001C19.9269 24.6001 18.9101 24.1366 18.0727 23.2095C17.2354 22.2824 16.8167 21.116 16.8167 19.7104C16.8167 18.6936 17.041 17.5721 17.4896 16.3459C17.9681 15.1198 18.5811 13.8787 19.3288 12.6226C20.1064 11.3665 20.9737 10.1254 21.9307 8.89921C22.9176 7.64314 23.9045 6.47678 24.8914 5.40015L26.0578 6.38706C24.712 7.97211 23.5905 9.57211 22.6933 11.1871C21.826 12.802 21.3026 14.3871 21.1232 15.9422C22.3195 16.0319 23.3512 16.4805 24.2185 17.288C25.0858 18.0955 25.5195 19.1272 25.5195 20.3833Z" fill="#25496B"/>
</svg>
