<svg width="30" height="30" viewBox="0 0 30 30" fill="none" xmlns="http://www.w3.org/2000/svg">
<path d="M12.6442 20.3816C12.6442 21.5779 12.2255 22.5797 11.3881 23.3872C10.5508 24.1947 9.50402 24.5984 8.24795 24.5984C7.05169 24.5984 6.03486 24.1349 5.19748 23.2078C4.3601 22.2807 3.94141 21.1143 3.94141 19.7087C3.94141 18.6919 4.16571 17.5704 4.6143 16.3442C5.09281 15.1181 5.70589 13.8769 6.45356 12.6209C7.23113 11.3648 8.09842 10.1237 9.05543 8.8975C10.0423 7.64143 11.0293 6.47507 12.0162 5.39844L13.2274 6.38535C11.8816 7.9704 10.7601 9.5704 9.8629 11.1854C8.96571 12.8003 8.42739 14.3854 8.24795 15.9405C9.44421 16.0302 10.476 16.4788 11.3433 17.2863C12.2106 18.0938 12.6442 19.1255 12.6442 20.3816ZM25.519 20.3816C25.519 21.5779 25.1003 22.5797 24.2629 23.3872C23.4255 24.1947 22.3788 24.5984 21.1227 24.5984C19.9265 24.5984 18.9096 24.1349 18.0722 23.2078C17.2349 22.2807 16.8162 21.1143 16.8162 19.7087C16.8162 18.6919 17.0405 17.5704 17.4891 16.3442C17.9676 15.1181 18.5807 13.8769 19.3283 12.6209C20.1059 11.3648 20.9732 10.1237 21.9302 8.8975C22.9171 7.64143 23.904 6.47507 24.8909 5.39844L26.0573 6.38535C24.7115 7.9704 23.59 9.5704 22.6928 11.1854C21.8255 12.8003 21.3022 14.3854 21.1227 15.9405C22.319 16.0302 23.3508 16.4788 24.218 17.2863C25.0853 18.0938 25.519 19.1255 25.519 20.3816Z" fill="#108A00"/>
</svg>
