<svg width="24" height="24" viewBox="0 0 24 24" fill="none" xmlns="http://www.w3.org/2000/svg">
<path d="M16.1411 2.95907L7.11109 5.95907C1.04109 7.98907 1.04109 11.2991 7.11109 13.3191L9.79109 14.2091L10.6811 16.8891C12.7011 22.9591 16.0211 22.9591 18.0411 16.8891L21.0511 7.86907C22.3911 3.81907 20.1911 1.60907 16.1411 2.95907ZM16.4611 8.33907L12.6611 12.1591C12.5111 12.3091 12.3211 12.3791 12.1311 12.3791C11.9411 12.3791 11.7511 12.3091 11.6011 12.1591C11.4616 12.0179 11.3834 11.8275 11.3834 11.6291C11.3834 11.4306 11.4616 11.2402 11.6011 11.0991L15.4011 7.27907C15.6911 6.98907 16.1711 6.98907 16.4611 7.27907C16.7511 7.56907 16.7511 8.04907 16.4611 8.33907Z" fill="#108A00"/>
</svg>

