<svg width="304" height="293" viewBox="0 0 304 293" fill="none" xmlns="http://www.w3.org/2000/svg">
<path d="M139.233 0.686172C136.323 0.972305 130.802 1.8307 127.061 2.63187C68.6953 14.7639 28.9734 67.5268 35.089 124.811C35.3859 128.072 35.7422 130.762 35.8015 130.819C35.8609 130.877 37.9984 130.648 40.5515 130.304L45.1234 129.675L44.7078 125.326C43.8765 117.829 44.2328 102.664 45.4203 96.4262C52.0109 60.2018 76.8297 30.5012 112.039 16.6524C124.805 11.6737 136.977 9.44183 151.82 9.44183H162.092L162.33 7.15276C163.22 0.40004 163.339 0.743393 160.37 0.342804C156.808 -0.115005 145.705 0.0566711 139.233 0.686172Z" fill="url(#paint0_linear_1876_33744)"/>
<path d="M171.417 2.97595C171.18 3.71989 170.883 5.78006 170.645 7.49686L170.289 10.6443L175.217 11.6744C190.773 14.8219 207.755 22.7191 220.283 32.6193C226.161 37.1974 229.486 40.4021 234.414 46.0676C256.086 70.9611 264.636 103.523 257.63 134.94C256.977 137.916 256.561 140.434 256.68 140.606C256.858 140.72 258.877 141.35 261.252 141.922C264.339 142.666 265.527 142.78 265.764 142.323C265.883 141.922 266.536 139.118 267.189 136.028C272.533 110.734 268.555 83.6082 256.145 60.832C241.064 33.0771 215.414 12.9334 184.242 4.3494C180.383 3.31932 175.989 2.23201 174.505 2.06033C171.952 1.71696 171.714 1.7742 171.417 2.97595Z" fill="url(#paint1_linear_1876_33744)"/>
<path d="M35.4469 20.3728C33.9031 22.1468 32.6562 23.8064 32.6562 24.0353C32.6562 24.3214 36.0406 27.2972 40.2562 30.6736C44.4125 34.0499 48.2719 37.2546 48.8656 37.7124C49.9344 38.5708 50.1719 38.3992 52.9031 35.4806C54.4469 33.7638 55.8125 32.047 55.8125 31.7036C55.8125 31.2458 39.9 17.912 38.5938 17.2826C38.4156 17.2253 36.9906 18.5988 35.4469 20.3728Z" fill="url(#paint2_linear_1876_33744)"/>
<path d="M256.796 24.0904C252.224 27.8102 248.424 31.1293 248.305 31.3582C248.127 31.8732 253.411 38.3398 253.946 38.3398C254.54 38.3398 271.343 24.5482 271.343 24.0904C271.343 23.4609 265.999 17.166 265.465 17.2232C265.286 17.2232 261.368 20.3135 256.796 24.0904Z" fill="url(#paint3_linear_1876_33744)"/>
<path d="M130.209 39.1982C123.559 40.9723 117.147 45.3215 114.237 50.1285C113.228 51.7881 112.159 52.7609 111.15 52.9899C104.737 54.3061 99.3937 58.2547 96.7219 63.8057C95.7125 65.7514 95 68.2121 95 69.5283C95 71.7602 94.8813 71.8746 91.4969 73.3625C82.4125 77.4828 76 87.2113 76 96.9971C76 102.834 78.4937 109.53 82.175 113.65L84.1344 115.882L82.4719 119.029C77.9 127.384 79.3844 138.086 85.975 144.724L88.4094 147.185L87.7562 150.103C86.2719 156.799 88.4688 164.582 93.2188 169.56C96.0094 172.536 101.294 175.741 104.559 176.485C105.509 176.656 107.112 178.03 108.597 179.976C114.178 187.129 123.856 191.707 133.237 191.707C138.106 191.707 142.797 190.562 147.606 188.273L152 186.099L156.394 188.273C161.203 190.562 165.894 191.707 170.762 191.707C180.144 191.707 189.822 187.129 195.403 179.976C196.887 178.03 198.491 176.656 199.441 176.485C202.706 175.741 207.991 172.536 210.781 169.56C215.531 164.582 217.728 156.799 216.244 150.103L215.591 147.185L218.025 144.724C224.616 138.086 226.041 127.671 221.587 119.144L219.866 115.882L221.706 113.764C225.447 109.644 228 102.777 228 96.9971C228 87.383 221.528 77.4256 212.681 73.477C209.059 71.8746 209 71.7602 209 69.5283C209 68.2121 208.287 65.7514 207.278 63.8057C204.606 58.2547 199.262 54.3061 192.85 52.9899C191.841 52.7609 190.772 51.7881 189.762 50.1285C183.291 39.4272 165.775 35.0779 154.256 41.3156L152 42.5746L149.744 41.3156C144.519 38.5115 136.384 37.5959 130.209 39.1982ZM144.459 49.2701L147.25 50.5863V113.936V177.343L145.172 178.831C142.678 180.72 136.741 182.551 133.297 182.551C129.497 182.551 123.975 180.662 120.531 178.259L117.503 176.084L120.472 174.482C125.934 171.449 128.844 166.184 129.022 159.202L129.141 154.796L125.578 154.968C120.175 155.254 120.116 155.254 119.7 158.973C119.106 164.067 116.969 166.585 112.219 167.615C104.975 169.16 96.7812 162.293 96.7812 154.681C96.7812 152.45 98.0875 148.959 99.9875 146.04L101.472 143.751L97.6125 141.577C93.2188 139.116 91.0813 136.655 89.8344 132.821C88.1719 127.442 90.8438 121.147 95.8312 118.629C98.0875 117.484 102.6 117.484 104.856 118.629C106.816 119.602 109.606 122.348 111.625 125.324C112.397 126.412 113.109 127.384 113.169 127.499C113.228 127.613 115.188 126.755 117.503 125.61L121.778 123.55L120.412 121.204C118.037 117.084 112.991 112.334 108.953 110.388C105.747 108.843 104.559 108.614 100.7 108.614C98.2062 108.614 95.1781 108.957 94.05 109.301C92.15 109.93 91.7937 109.873 90.4875 108.671C88.2312 106.668 86.0344 101.747 85.6781 98.0272C85.0844 91.5033 89.0625 85.0939 95.7125 81.8893C101.947 78.8563 106.459 79.7147 111.862 84.865L115.366 88.1842L117.919 86.868C119.344 86.124 121.125 85.1512 121.837 84.5789C123.084 83.7205 123.084 83.5488 122.312 82.0609C119.878 77.7117 111.091 71.5312 107.172 71.5312C103.906 71.474 103.788 69.0133 106.875 65.5797C109.309 62.9473 112.872 61.6311 116.375 62.0889L119.106 62.4322L119.819 60.2576C122.966 50.0141 134.841 44.7492 144.459 49.2701ZM172.009 48.3545C177.65 49.9568 182.459 54.6494 184.181 60.2576L184.894 62.4322L187.684 62.0889C191.188 61.6311 194.928 63.0617 197.303 65.7514C200.213 69.1277 200.034 71.474 196.828 71.5312C192.909 71.5312 184.122 77.7117 181.688 82.0609C180.916 83.5488 180.916 83.7205 182.162 84.5789C182.875 85.1512 184.656 86.124 186.081 86.868L188.634 88.1842L192.137 84.865C197.541 79.7147 202.053 78.8563 208.287 81.8893C214.938 85.0939 218.916 91.5033 218.322 98.0272C217.966 101.747 215.769 106.668 213.512 108.671C212.206 109.873 211.85 109.93 209.95 109.301C208.822 108.957 205.794 108.614 203.3 108.614C199.441 108.614 198.253 108.843 195.047 110.388C191.009 112.334 185.963 117.084 183.588 121.204L182.222 123.55L186.497 125.61C188.812 126.755 190.772 127.613 190.831 127.499C190.891 127.384 191.603 126.412 192.375 125.324C196.056 119.945 199.381 117.77 203.656 117.77C213.156 117.77 218.025 129.502 211.791 137.399C210.9 138.544 208.466 140.375 206.387 141.577L202.528 143.751L204.012 146.04C208.525 152.85 208.169 158.687 203.062 163.723C195.344 171.449 184.062 167.786 184.062 157.543C184.062 155.425 183.588 155.254 178.422 154.968L174.859 154.796L174.978 159.202C175.156 166.184 178.066 171.449 183.528 174.482L186.497 176.084L183.469 178.259C180.025 180.662 174.503 182.551 170.703 182.551C167.259 182.551 161.322 180.72 158.828 178.831L156.75 177.343V113.936V50.5291L159.6 49.3273C161.144 48.6979 162.806 48.0111 163.281 47.8395C165.122 47.3244 169.1 47.4961 172.009 48.3545Z" fill="url(#paint4_linear_1876_33744)"/>
<path d="M8.78594 64.8928L7.24219 69.1275L17.9891 72.9045C23.9266 74.9646 28.9141 76.5098 29.0922 76.2236C30.1016 75.1935 32.1797 68.5553 31.7047 68.1547C31.1703 67.6396 11.5766 60.658 10.8047 60.658C10.5672 60.658 9.67656 62.5465 8.78594 64.8928Z" fill="url(#paint5_linear_1876_33744)"/>
<path d="M282.507 64.3195C277.045 66.2652 272.413 67.982 272.235 68.2109C271.938 68.4971 274.432 75.8221 275.085 76.4516C275.323 76.6805 296.045 69.6416 296.579 69.1266C297.054 68.6688 293.729 60.657 293.076 60.7143C292.72 60.7715 287.97 62.3738 282.507 64.3195Z" fill="url(#paint6_linear_1876_33744)"/>
<path d="M242.25 106.153V110.445H247H251.75V106.153V101.861H247H242.25V106.153Z" fill="url(#paint7_linear_1876_33744)"/>
<path d="M0 115.023V119.602H11.2812H22.5625V115.023V110.445H11.2812H0V115.023Z" fill="url(#paint8_linear_1876_33744)"/>
<path d="M281.438 115.023V119.602H292.719H304V115.023V110.445H292.719H281.438V115.023Z" fill="url(#paint9_linear_1876_33744)"/>
<path d="M242.25 123.896V128.188H247H251.75V123.896V119.604H247H242.25V123.896Z" fill="url(#paint10_linear_1876_33744)"/>
<path d="M40.8483 138.315C36.8108 139.345 36.8702 138.373 40.4921 149.074C48.389 172.537 63.7077 192.051 86.3296 207.388C94.0483 212.653 99.2733 218.833 102.539 226.616C105.151 232.854 105.686 236.86 105.686 250.136C105.686 264.958 106.101 266.56 110.733 271.081C113.108 273.37 114.651 274.286 117.205 274.972C120.351 275.888 120.53 276.002 120.53 277.777C120.53 283.556 125.933 290.424 131.811 292.083C136.442 293.399 167.555 293.399 172.186 292.083C178.183 290.366 183.467 283.556 183.467 277.49C183.467 276.06 183.823 275.831 186.614 275.03C190.592 273.942 194.748 270.509 196.648 266.789C197.955 264.271 198.014 263.298 198.37 249.22C198.726 232.739 199.201 230.393 203.417 222.61C207.039 215.857 210.898 212.08 222.12 204.24C238.508 192.738 252.105 175.97 260.358 157.257C261.783 153.995 262.792 151.191 262.555 151.02C261.901 150.447 255.37 148.216 254.42 148.216C254.005 148.216 253.292 149.188 252.936 150.333C251.392 154.854 245.989 164.754 241.595 171.106C234.114 181.808 225.148 190.735 214.342 198.174C206.623 203.496 203.417 206.301 199.736 210.936L196.351 215.171H151.998H107.705L104.023 210.707C100.045 205.843 97.4921 203.554 89.6546 198.174C68.8733 183.811 54.564 164.182 47.7952 140.604C46.6671 136.885 46.6077 136.885 40.8483 138.315ZM191.601 225.128C191.423 225.529 190.948 227.36 190.533 229.134L189.701 232.339H151.998H114.295L113.464 229.134C113.048 227.36 112.573 225.529 112.395 225.128C112.158 224.441 118.451 224.327 151.998 224.327C185.545 224.327 191.839 224.441 191.601 225.128ZM188.811 245.501V249.507H151.998H115.186V245.501V241.495H151.998H188.811V245.501ZM188.811 259.807C188.811 261.753 187.089 264.385 185.07 265.53C183.289 266.617 181.983 266.675 166.723 266.675H150.217V271.253V275.831H162.092C173.67 275.831 173.967 275.888 173.967 276.975C173.967 278.921 172.245 281.553 170.226 282.698C168.445 283.785 167.139 283.843 151.998 283.843C136.858 283.843 135.551 283.785 133.77 282.698C131.751 281.553 130.03 278.921 130.03 276.975C130.03 275.888 130.386 275.831 135.967 275.831H141.905V271.253V266.675H131.395C121.955 266.675 120.648 266.56 118.926 265.53C116.908 264.385 115.186 261.753 115.186 259.807C115.186 258.663 115.305 258.663 151.998 258.663C188.692 258.663 188.811 258.663 188.811 259.807Z" fill="url(#paint11_linear_1876_33744)"/>
<path d="M17.6922 157.201L7.24219 160.921L8.78594 165.156C9.61719 167.502 10.5078 169.391 10.7453 169.391C11.5766 169.391 31.1703 162.466 31.6453 162.008C32.2391 161.436 29.5078 153.768 28.7359 153.596C28.4391 153.539 23.4516 155.141 17.6922 157.201Z" fill="url(#paint12_linear_1876_33744)"/>
<path d="M274.61 154.054C274.491 154.454 273.778 156.286 273.066 158.117C272.413 159.948 271.938 161.608 272.116 161.722C272.591 162.18 293.372 169.505 293.61 169.276C293.669 169.162 294.441 167.216 295.331 164.927C296.46 161.837 296.697 160.692 296.103 160.52C295.747 160.349 290.938 158.689 285.535 156.801C280.131 154.912 275.5 153.367 275.263 153.367C275.025 153.367 274.728 153.71 274.61 154.054Z" fill="url(#paint13_linear_1876_33744)"/>
<path d="M42.1569 197.775C38.06 201.094 34.2007 204.242 33.6069 204.871C32.36 206.073 32.3007 205.901 36.9913 211.395L38.4163 213.055L47.085 206.016C51.8944 202.124 55.8132 198.691 55.8132 198.405C55.8132 197.775 50.4694 191.709 49.935 191.709C49.7569 191.709 46.2538 194.456 42.1569 197.775Z" fill="url(#paint14_linear_1876_33744)"/>
<path d="M250.919 194.913C249.434 196.687 248.188 198.289 248.188 198.518C248.188 198.747 252.106 202.123 256.916 205.957L265.584 212.996L268.434 209.963C270.038 208.246 271.284 206.587 271.344 206.186C271.344 205.557 255.431 192.223 254.184 191.822C253.947 191.765 252.463 193.138 250.919 194.913Z" fill="url(#paint15_linear_1876_33744)"/>
<defs>
<linearGradient id="paint0_linear_1876_33744" x1="98.6763" y1="130.828" x2="98.6763" y2="0.0841522" gradientUnits="userSpaceOnUse">
<stop offset="0.56" stop-color="#108A00"/>
<stop offset="1" stop-color="#32D31D"/>
</linearGradient>
<linearGradient id="paint1_linear_1876_33744" x1="219.899" y1="142.594" x2="219.899" y2="1.87801" gradientUnits="userSpaceOnUse">
<stop offset="0.56" stop-color="#108A00"/>
<stop offset="1" stop-color="#32D31D"/>
</linearGradient>
<linearGradient id="paint2_linear_1876_33744" x1="44.2344" y1="38.1641" x2="44.2344" y2="17.2808" gradientUnits="userSpaceOnUse">
<stop offset="0.56" stop-color="#108A00"/>
<stop offset="1" stop-color="#32D31D"/>
</linearGradient>
<linearGradient id="paint3_linear_1876_33744" x1="259.822" y1="38.3398" x2="259.822" y2="17.2229" gradientUnits="userSpaceOnUse">
<stop offset="0.56" stop-color="#108A00"/>
<stop offset="1" stop-color="#32D31D"/>
</linearGradient>
<linearGradient id="paint4_linear_1876_33744" x1="152" y1="191.707" x2="152" y2="38.4119" gradientUnits="userSpaceOnUse">
<stop offset="0.56" stop-color="#108A00"/>
<stop offset="1" stop-color="#32D31D"/>
</linearGradient>
<linearGradient id="paint5_linear_1876_33744" x1="19.5082" y1="76.2578" x2="19.5082" y2="60.658" gradientUnits="userSpaceOnUse">
<stop offset="0.56" stop-color="#108A00"/>
<stop offset="1" stop-color="#32D31D"/>
</linearGradient>
<linearGradient id="paint6_linear_1876_33744" x1="284.418" y1="76.457" x2="284.418" y2="60.714" gradientUnits="userSpaceOnUse">
<stop offset="0.56" stop-color="#108A00"/>
<stop offset="1" stop-color="#32D31D"/>
</linearGradient>
<linearGradient id="paint7_linear_1876_33744" x1="247" y1="110.445" x2="247" y2="101.861" gradientUnits="userSpaceOnUse">
<stop offset="0.56" stop-color="#108A00"/>
<stop offset="1" stop-color="#32D31D"/>
</linearGradient>
<linearGradient id="paint8_linear_1876_33744" x1="11.2812" y1="119.602" x2="11.2812" y2="110.445" gradientUnits="userSpaceOnUse">
<stop offset="0.56" stop-color="#108A00"/>
<stop offset="1" stop-color="#32D31D"/>
</linearGradient>
<linearGradient id="paint9_linear_1876_33744" x1="292.719" y1="119.602" x2="292.719" y2="110.445" gradientUnits="userSpaceOnUse">
<stop offset="0.56" stop-color="#108A00"/>
<stop offset="1" stop-color="#32D31D"/>
</linearGradient>
<linearGradient id="paint10_linear_1876_33744" x1="247" y1="128.188" x2="247" y2="119.604" gradientUnits="userSpaceOnUse">
<stop offset="0.56" stop-color="#108A00"/>
<stop offset="1" stop-color="#32D31D"/>
</linearGradient>
<linearGradient id="paint11_linear_1876_33744" x1="150.193" y1="293.07" x2="150.193" y2="137.43" gradientUnits="userSpaceOnUse">
<stop offset="0.56" stop-color="#108A00"/>
<stop offset="1" stop-color="#32D31D"/>
</linearGradient>
<linearGradient id="paint12_linear_1876_33744" x1="19.4856" y1="169.391" x2="19.4856" y2="153.595" gradientUnits="userSpaceOnUse">
<stop offset="0.56" stop-color="#108A00"/>
<stop offset="1" stop-color="#32D31D"/>
</linearGradient>
<linearGradient id="paint13_linear_1876_33744" x1="284.248" y1="169.281" x2="284.248" y2="153.367" gradientUnits="userSpaceOnUse">
<stop offset="0.56" stop-color="#108A00"/>
<stop offset="1" stop-color="#32D31D"/>
</linearGradient>
<linearGradient id="paint14_linear_1876_33744" x1="44.3499" y1="213.055" x2="44.3499" y2="191.709" gradientUnits="userSpaceOnUse">
<stop offset="0.56" stop-color="#108A00"/>
<stop offset="1" stop-color="#32D31D"/>
</linearGradient>
<linearGradient id="paint15_linear_1876_33744" x1="259.766" y1="212.996" x2="259.766" y2="191.821" gradientUnits="userSpaceOnUse">
<stop offset="0.56" stop-color="#108A00"/>
<stop offset="1" stop-color="#32D31D"/>
</linearGradient>
</defs>
</svg>
