<svg width="54" height="54" viewBox="0 0 54 54" fill="none" xmlns="http://www.w3.org/2000/svg">
<path d="M20.25 33.5632V34.875C20.25 37.5603 21.3167 40.1357 23.2155 42.0345C25.1144 43.9333 27.6897 45 30.375 45C33.0603 45 35.6356 43.9333 37.5345 42.0345C39.4333 40.1357 40.5 37.5603 40.5 34.875V31.1175C38.9981 30.5867 37.7323 29.5421 36.9262 28.1682C36.1201 26.7943 35.8257 25.1797 36.0949 23.6097C36.3642 22.0398 37.1798 20.6155 38.3977 19.5888C39.6155 18.562 41.1571 17.9989 42.75 17.9989C44.3429 17.9989 45.8845 18.562 47.1023 19.5888C48.3202 20.6155 49.1358 22.0398 49.4051 23.6097C49.6743 25.1797 49.3799 26.7943 48.5738 28.1682C47.7677 29.5421 46.5019 30.5867 45 31.1175V34.875C45 38.7538 43.4592 42.4737 40.7164 45.2164C37.9737 47.9592 34.2538 49.5 30.375 49.5C26.4962 49.5 22.7763 47.9592 20.0336 45.2164C17.2908 42.4737 15.75 38.7538 15.75 34.875V33.5632C12.6039 33.0315 9.74793 31.4026 7.68854 28.9655C5.62915 26.5284 4.49951 23.4407 4.5 20.25V9C4.5 7.80653 4.97411 6.66193 5.81802 5.81802C6.66193 4.97411 7.80653 4.5 9 4.5H11.25C11.8467 4.5 12.419 4.73705 12.841 5.15901C13.2629 5.58097 13.5 6.15326 13.5 6.75C13.5 7.34674 13.2629 7.91903 12.841 8.34099C12.419 8.76295 11.8467 9 11.25 9H9V20.25C9 22.6369 9.94821 24.9261 11.636 26.614C13.3239 28.3018 15.6131 29.25 18 29.25C20.3869 29.25 22.6761 28.3018 24.364 26.614C26.0518 24.9261 27 22.6369 27 20.25V9H24.75C24.1533 9 23.581 8.76295 23.159 8.34099C22.7371 7.91903 22.5 7.34674 22.5 6.75C22.5 6.15326 22.7371 5.58097 23.159 5.15901C23.581 4.73705 24.1533 4.5 24.75 4.5H27C28.1935 4.5 29.3381 4.97411 30.182 5.81802C31.0259 6.66193 31.5 7.80653 31.5 9V20.25C31.5005 23.4407 30.3709 26.5284 28.3115 28.9655C26.2521 31.4026 23.3961 33.0315 20.25 33.5632ZM42.75 27C43.3467 27 43.919 26.7629 44.341 26.341C44.7629 25.919 45 25.3467 45 24.75C45 24.1533 44.7629 23.581 44.341 23.159C43.919 22.7371 43.3467 22.5 42.75 22.5C42.1533 22.5 41.581 22.7371 41.159 23.159C40.7371 23.581 40.5 24.1533 40.5 24.75C40.5 25.3467 40.7371 25.919 41.159 26.341C41.581 26.7629 42.1533 27 42.75 27Z" fill="white"/>
</svg>
