<svg width="43" height="42" viewBox="0 0 43 42" fill="none" xmlns="http://www.w3.org/2000/svg">
<g clip-path="url(#clip0_1114_10317)">
<path d="M36.9927 27.7073C36.8401 25.9108 35.5704 24.3684 33.8323 23.8689L24.5444 21.2149V19.2939C27.1404 17.9986 28.9194 15.3407 28.9194 12.2058C32.4001 11.7012 32.4049 6.6745 28.9194 6.16919V1.75H33.2944C34.4513 1.75 34.4528 0 33.2944 0C28.2763 0 18.1021 0 8.79442 0C7.63749 0 7.63601 1.75 8.79442 1.75H9.66898V4.375C9.66898 5.53192 11.419 5.53341 11.419 4.375V1.75H13.1694V6.16919C9.68876 6.6738 9.68394 11.7005 13.1694 12.2058C13.1694 15.3301 14.9387 17.9937 17.5444 19.2939V21.2149L8.25524 23.8694C6.51846 24.3684 5.24874 25.9108 5.09614 27.7086C4.28143 37.4958 4.41942 34.973 4.41942 38.5C4.41942 40.4299 5.98952 42 7.91942 42H34.1694C36.0993 42 37.6694 40.4299 37.6694 38.5C37.6694 34.979 37.8141 37.5771 36.9927 27.7073ZM35.2486 27.8539L35.8436 35H31.9842C32.5629 26.8969 33.6435 28 23.8274 28C24.127 26.202 23.8258 27.3242 24.7473 27.1011C25.2756 26.9756 25.2067 26.8727 26.864 23.6977L33.35 25.5511C34.3941 25.8513 35.1572 26.7772 35.2486 27.8539ZM11.4843 29.75H30.6045L29.8546 40.25H12.2342L11.4843 29.75ZM20.4665 25.2273C20.7393 25.47 21.08 25.5077 21.3733 25.3887C21.7539 25.2345 21.3331 25.0194 22.4199 25.8007L22.0533 28H20.0355L19.6689 25.8007L20.4665 25.2273ZM25.1458 23.2068L24.2351 24.952L22.8615 23.9635L23.9325 22.8602L25.1458 23.2068ZM28.9194 10.4253V7.94972C30.0827 8.36255 30.0838 10.012 28.9194 10.4253ZM27.1694 1.75V6.125H14.9194V1.75H27.1694ZM13.1694 7.94972V10.4253C12.0061 10.0124 12.0051 8.36299 13.1694 7.94972ZM14.9194 12.25C14.9194 10.7052 14.9194 8.73206 14.9194 7.875H27.1694V12.25C27.1694 15.6274 24.4218 18.375 21.0444 18.375C17.667 18.375 14.9194 15.6274 14.9194 12.25ZM22.7944 19.9222V21.5201L21.0444 23.3229L19.2944 21.5201V19.9222C20.479 20.1925 21.6098 20.1925 22.7944 19.9222ZM18.1563 22.8602L19.2273 23.9635L17.8537 24.952L16.943 23.2068L18.1563 22.8602ZM6.84019 27.8552C6.93163 26.7772 7.69472 25.8513 8.73763 25.5515L15.225 23.6978C16.8861 26.8803 16.8261 26.9787 17.3415 27.1011C18.2648 27.3246 17.9607 26.1957 18.2615 28C8.49683 28 9.52259 26.8503 10.1046 35H6.24528L6.84019 27.8552ZM6.16942 38.5V36.75H10.2297L10.4796 40.25H7.91942C6.95429 40.25 6.16942 39.4651 6.16942 38.5ZM35.9194 38.5C35.9194 39.4651 35.1345 40.25 34.1694 40.25H31.6093L31.8592 36.75H35.9194V38.5Z" fill="black"/>
</g>
<defs>
<clipPath id="clip0_1114_10317">
<rect width="42" height="42" fill="white" transform="translate(0.5)"/>
</clipPath>
</defs>
</svg>
