<svg width="43" height="42" viewBox="0 0 43 42" fill="none" xmlns="http://www.w3.org/2000/svg">
<path d="M22.375 36.75H8.375C6.93125 36.75 5.75 35.5687 5.75 34.125V22.6616C6.03262 22.7194 6.32575 22.75 6.625 22.75H9.25C9.25 24.1973 10.4277 25.375 11.875 25.375C13.3223 25.375 14.5 24.1973 14.5 22.75H27.625C27.625 24.1973 28.8027 25.375 30.25 25.375C31.6973 25.375 32.875 24.1973 32.875 22.75H35.5C35.7993 22.75 36.0924 22.7194 36.375 22.6616V26.39C36.375 26.8713 36.7687 27.265 37.25 27.265C37.7313 27.265 38.125 26.8713 38.125 26.39V21.8523C39.1811 21.0525 39.875 19.7978 39.875 18.375V13.125C39.875 10.7126 37.9124 8.75 35.5 8.75H29.375V6.125C29.375 3.71263 27.4124 1.75 25 1.75H17.125C14.7126 1.75 12.75 3.71263 12.75 6.125V8.75H6.625C4.21263 8.75 2.25 10.7126 2.25 13.125V18.375C2.25 19.7986 2.94387 21.0534 4 21.8523V34.125C4 36.54 5.96 38.5 8.375 38.5H22.375C22.8563 38.5 23.25 38.1063 23.25 37.625C23.25 37.1437 22.8563 36.75 22.375 36.75ZM12.75 22.75C12.75 23.233 12.358 23.625 11.875 23.625C11.392 23.625 11 23.233 11 22.75V21C11 20.5179 11.392 20.125 11.875 20.125C12.358 20.125 12.75 20.5179 12.75 21V22.75ZM31.125 22.75C31.125 23.233 30.733 23.625 30.25 23.625C29.767 23.625 29.375 23.233 29.375 22.75V21C29.375 20.5179 29.767 20.125 30.25 20.125C30.733 20.125 31.125 20.5179 31.125 21V22.75ZM14.5 6.125C14.5 4.67775 15.6777 3.5 17.125 3.5H25C26.4473 3.5 27.625 4.67775 27.625 6.125V8.75H25.875V6.125C25.875 5.642 25.4839 5.25 25 5.25H17.125C16.6411 5.25 16.25 5.642 16.25 6.125V8.75H14.5V6.125ZM18 8.75V7H24.125V8.75H18ZM4 13.125C4 11.6777 5.17775 10.5 6.625 10.5H35.5C36.9473 10.5 38.125 11.6777 38.125 13.125V18.375C38.125 19.8223 36.9473 21 35.5 21H32.875C32.875 19.5527 31.6973 18.375 30.25 18.375C28.8027 18.375 27.625 19.5527 27.625 21H14.5C14.5 19.5527 13.3223 18.375 11.875 18.375C10.4277 18.375 9.25 19.5527 9.25 21H6.625C5.17775 21 4 19.8223 4 18.375V13.125Z" fill="black"/>
<path d="M39.945 30.3173L32.5644 27.3196C31.9265 27.0614 31.1976 27.0614 30.5598 27.3196L23.1791 30.3173C22.69 30.5159 22.3741 30.9806 22.3741 31.5003C22.3741 32.0201 22.69 32.4847 23.1791 32.6833L24.9991 33.4227V37.4941C24.9991 38.1906 25.406 38.8206 26.0395 39.1014C27.7878 39.8636 29.6454 40.2503 31.5616 40.2503C33.4779 40.2503 35.3346 39.8636 37.0873 39.0988C37.7173 38.8206 38.1241 38.1906 38.1241 37.4941V33.4227L39.9441 32.6833C40.4333 32.4847 40.7491 32.0201 40.7491 31.5003C40.7491 30.9806 40.4333 30.5159 39.9441 30.3173H39.945ZM36.3838 37.4967C33.3318 38.8293 29.7854 38.8319 26.75 37.4941V34.1332L30.5598 35.6811C30.8783 35.8097 31.2204 35.8753 31.5625 35.8753C31.9046 35.8753 32.2459 35.8106 32.5653 35.6811L36.3776 34.1323L36.3838 37.4967ZM31.9073 34.0588C31.6876 34.1481 31.4365 34.1481 31.2186 34.0588L24.9195 31.5003L31.2186 28.9418C31.4383 28.8526 31.6894 28.8526 31.9073 28.9418L38.2064 31.5003L31.9073 34.0588Z" fill="black"/>
</svg>
